<svg width="65" height="24" viewBox="0 0 65 24" fill="none" xmlns="http://www.w3.org/2000/svg">
<path d="M0 23.9931C0.173305 22.9472 0.332884 21.9762 0.495894 21.0062C1.19769 16.8209 1.90035 12.6356 2.60387 8.45113C3.05858 5.74593 3.51844 3.04074 3.96372 0.333822C4.0049 0.0813947 4.09927 -0.0219885 4.34808 0.00385728C4.44674 0.0141956 4.54798 0.00558033 4.6475 0.00558033C24.3872 0.00558033 44.126 0.00558033 63.8656 0.00558033H64.4842C64.3795 0.664648 64.2869 1.27892 64.1839 1.89146C63.1604 7.97815 62.136 14.0657 61.1107 20.1524C60.9143 21.3215 60.7092 22.4897 60.5222 23.6614C60.4836 23.9052 60.3952 24.0249 60.1395 23.9957C60.0271 23.9827 59.9113 23.9939 59.7972 23.9939C40.0867 23.9939 20.3754 23.9939 0.664909 23.9939C0.466723 23.9939 0.269395 23.9939 0 23.9939L0 23.9931ZM36.4851 7.99107C34.7151 8.00917 33.3484 8.54676 32.3403 9.82699C30.7771 11.8128 31.3408 14.5671 33.502 15.5828C35.6374 16.5857 38.4034 15.7534 39.6294 13.7375C41.0116 11.4647 40.0284 8.83106 37.5386 8.16596C37.1423 8.06 36.7253 8.02984 36.4851 7.99107V7.99107ZM19.5209 15.9852C21.1038 15.8964 22.6078 15.1073 23.4769 13.3489C24.5613 11.1563 23.5258 8.8078 21.2119 8.17544C19.9387 7.82738 18.6861 7.94714 17.5141 8.56399C16.1037 9.30576 15.2423 10.468 15.1187 12.0807C14.9446 14.3638 16.76 16.0851 19.5209 15.9852V15.9852ZM43.745 13.473C43.7836 13.4669 43.8231 13.4609 43.8617 13.4549C44.2306 14.145 44.5944 14.8385 44.9745 15.5234C45.0431 15.6483 45.1735 15.8258 45.2799 15.8284C46.1275 15.8534 46.9761 15.8422 47.9258 15.8422C47.3046 14.8997 46.7435 14.0476 46.2005 13.224C46.6277 12.9345 47.061 12.7053 47.4145 12.3874C48.1437 11.7292 48.3771 10.8737 48.1523 9.92692C47.9335 9.00337 47.2377 8.55193 46.3781 8.31242C46.1867 8.25901 45.9868 8.21335 45.7895 8.20818C44.7197 8.17975 43.6498 8.17802 42.5808 8.13926C42.2462 8.12719 42.1441 8.2547 42.096 8.56571C41.8618 10.0768 41.6044 11.5836 41.3574 13.0922C41.2106 13.9907 41.0682 14.8893 40.9147 15.8482C41.6482 15.8482 42.3303 15.837 43.0115 15.8534C43.2895 15.8603 43.3727 15.7483 43.4096 15.4864C43.5031 14.8135 43.6318 14.145 43.7459 13.4747L43.745 13.473ZM15.3821 9.01026C14.35 8.42528 13.2656 8.00917 12.0645 7.99624C11.2237 7.98763 10.4138 8.14184 9.71368 8.65531C8.49625 9.54699 8.4585 11.1244 9.64504 12.048C9.9582 12.2918 10.3194 12.4745 10.6626 12.6786C10.9689 12.8604 11.2975 13.0103 11.5866 13.2162C11.9606 13.4833 11.9023 13.8176 11.4673 13.977C11.3232 14.0295 11.1619 14.0528 11.0075 14.0562C10.1838 14.0735 9.48547 13.7297 8.82828 13.2765C8.70473 13.1921 8.5872 13.0999 8.41389 12.9733C8.30321 13.6212 8.21914 14.1992 8.1016 14.7704C8.0484 15.0297 8.13592 15.1624 8.34783 15.2873C9.69481 16.0825 11.1233 16.2471 12.5887 15.7379C13.0374 15.582 13.4844 15.2624 13.7967 14.9005C14.5885 13.9813 14.3998 12.6313 13.3831 11.8791C12.8126 11.4579 12.1528 11.1606 11.5514 10.7781C11.4081 10.6868 11.2383 10.4593 11.264 10.3301C11.2914 10.1906 11.5231 10.0751 11.6844 9.98378C11.7762 9.93209 11.9066 9.94502 12.0198 9.93985C12.9138 9.90452 13.7031 10.1794 14.3595 10.7652C14.7009 10.1785 15.0287 9.61505 15.3821 9.00768V9.01026ZM27.6499 10.1957C28.3715 10.1957 29.045 10.1526 29.7107 10.2078C30.3679 10.2621 30.8029 10.1018 31.1486 9.47893C31.4206 8.98872 31.9071 8.61827 32.3077 8.18319C30.5978 8.18319 28.8879 8.12978 27.1841 8.20215C26.0799 8.24953 25.3858 9.02577 25.2099 10.1259C25.0272 11.2692 24.8307 12.4098 24.6445 13.5531C24.5219 14.3061 24.4043 15.0599 24.2782 15.8551C24.9972 15.8551 25.6526 15.8361 26.3072 15.8628C26.6453 15.8766 26.7422 15.7483 26.7834 15.4321C26.8683 14.7722 26.9996 14.1183 27.1154 13.4411C27.9922 13.4411 28.8193 13.4488 29.6455 13.4325C29.7699 13.4299 29.9844 13.336 30.0007 13.2524C30.1114 12.6976 30.18 12.1342 30.2718 11.5095H27.4329C27.5092 11.0443 27.5753 10.642 27.6482 10.194L27.6499 10.1957ZM48.2956 8.16769C48.9699 8.75611 49.3114 9.39881 49.4126 10.2H51.4219C51.1105 12.0928 50.8076 13.9356 50.4954 15.8353C51.2778 15.8353 52.0156 15.8448 52.7526 15.8224C52.8333 15.8198 52.9559 15.6423 52.9765 15.5303C53.1078 14.8282 53.215 14.1226 53.3317 13.4178C53.5085 12.3513 53.6869 11.2856 53.8688 10.194C54.5346 10.194 55.1609 10.2018 55.7863 10.1871C55.9047 10.1845 56.1106 10.1087 56.1252 10.0363C56.2487 9.4281 56.3363 8.81297 56.4401 8.16941H48.2939L48.2956 8.16769Z" fill="white"/>
<path d="M37.8179 11.7802C37.8119 13.0165 36.8398 13.9806 35.6087 13.9694C34.5774 13.9599 33.8799 13.262 33.8868 12.2446C33.8945 11.0152 34.876 10.0218 36.0814 10.0244C37.1221 10.0261 37.823 10.7352 37.8179 11.7802Z" fill="white"/>
<path d="M21.4509 11.7879C21.4449 13.0259 20.4745 13.9822 19.2374 13.9684C18.2078 13.9572 17.5103 13.2533 17.5206 12.2367C17.5335 11.0056 18.515 10.02 19.723 10.0234C20.7611 10.0269 21.4552 10.7351 21.45 11.787L21.4509 11.7879Z" fill="white"/>
<path d="M44.0439 11.6878C44.1194 11.2122 44.1941 10.7358 44.2833 10.1758C44.6076 10.2102 44.9439 10.187 45.2305 10.2955C45.4304 10.3713 45.6723 10.6169 45.6929 10.809C45.7169 11.0304 45.5788 11.3974 45.4038 11.4853C45.0194 11.6783 44.5664 11.7343 44.1418 11.8471L44.0448 11.6886L44.0439 11.6878Z" fill="white"/>
</svg>
