<svg width="77" height="24" viewBox="0 0 77 24" fill="none" xmlns="http://www.w3.org/2000/svg">
<g clip-path="url(#clip0_198_400)">
<path d="M21.083 0.193926C20.1189 0.887685 19.2713 1.66425 18.5367 2.56534C18.4722 2.64447 18.39 2.71563 18.3483 2.8058C18.0936 3.3554 17.6615 3.45907 17.0864 3.44067C15.7583 3.39773 14.4284 3.41736 13.0991 3.43392C12.7885 3.4376 12.4651 3.4879 12.1736 3.59095C11.8207 3.71547 11.6224 4.00991 11.6261 4.3988C11.6292 4.73433 11.8728 5.01957 12.2583 5.14163C12.686 5.2772 13.1205 5.39129 13.5489 5.52624C13.7527 5.59064 13.9534 5.66977 14.1461 5.76178C15.2183 6.2703 15.7369 7.06158 15.6031 8.23748C15.3496 10.4739 14.3234 12.2203 12.192 13.1748C11.226 13.6072 10.1925 13.7673 9.14544 13.7741C6.13941 13.7931 3.13277 13.7857 0.126736 13.7882C0.098505 13.7882 0.0708873 13.7771 0.0107422 13.7649C0.428076 12.6086 0.841727 11.4621 1.25906 10.3059C1.4082 10.3059 1.54015 10.3059 1.6721 10.3059C4.12639 10.3059 6.58068 10.312 9.03436 10.3004C9.49158 10.2985 9.95126 10.247 10.4042 10.1826C10.7172 10.1378 10.9289 9.9274 11.0498 9.63052C11.2487 9.14041 11.1051 8.75212 10.6086 8.56626C10.1796 8.40555 9.73339 8.28962 9.29335 8.1608C8.65507 7.97433 8.08492 7.6756 7.61297 7.19653C7.09191 6.66717 6.9526 6.02616 7.09744 5.32933C7.34293 4.14792 7.80138 3.04993 8.50471 2.06358C9.32588 0.912221 10.4729 0.314153 11.8642 0.25956C13.5084 0.195153 15.155 0.206808 16.8011 0.195766C18.1304 0.187179 19.4597 0.193926 20.7891 0.193926H21.0836H21.083Z" fill="white"/>
<path d="M54.7084 0.201374C55.991 0.201374 57.2584 0.18972 58.5251 0.205668C59.2395 0.214869 59.9539 0.256581 60.6658 0.311787C60.9573 0.334483 61.2495 0.412385 61.5312 0.499488C63.0636 0.974262 63.7246 2.13053 63.3785 3.699C62.9249 5.75451 61.5901 7.03223 59.7274 7.84744C59.6169 7.8959 59.5071 7.94436 59.3905 7.99466C60.3442 9.82567 60.7431 11.8106 61.2795 13.7962C61.0617 13.7962 60.8818 13.7962 60.7014 13.7962C59.5255 13.7962 58.3496 13.7913 57.1737 13.8005C56.9675 13.8024 56.876 13.76 56.8257 13.5355C56.5164 12.1627 56.1856 10.7942 55.8609 9.4245C55.8376 9.32635 55.8075 9.23066 55.756 9.04603C55.6873 9.21042 55.6443 9.30366 55.6087 9.39935C55.095 10.7752 54.5776 12.1492 54.0744 13.5288C53.9989 13.7355 53.8995 13.8036 53.6791 13.8017C52.4934 13.7901 51.3071 13.7962 50.1208 13.7956C50.0318 13.7956 49.9428 13.7876 49.8047 13.7815C51.4446 9.23925 53.074 4.72583 54.7077 0.200761L54.7084 0.201374ZM56.2427 6.30228C56.5287 6.30228 56.7422 6.30535 56.9552 6.30228C58.3717 6.27774 59.2843 5.50792 59.5586 4.10936C59.6734 3.52418 59.4531 3.16656 58.8657 3.08007C58.4545 3.01996 58.0329 3.01873 57.6162 3.01873C57.5358 3.01873 57.4161 3.13467 57.3824 3.223C57.0878 3.99282 56.8079 4.76816 56.5238 5.54227C56.4372 5.77782 56.3501 6.01275 56.2427 6.30289V6.30228Z" fill="white"/>
<path d="M42.9811 14.0565C42.4582 13.9761 41.9242 13.9387 41.4148 13.8068C39.8161 13.394 38.8666 12.1678 38.7973 10.5153C38.7347 9.02839 39.1483 7.64762 39.7252 6.30611C40.5795 4.31869 41.7726 2.58214 43.5819 1.33816C45.1788 0.24017 46.9371 -0.241351 48.871 0.116876C50.6717 0.450567 51.7052 1.70375 51.7481 3.55255C51.777 4.80082 51.4615 5.97794 51.0147 7.12807C50.3329 8.88424 49.47 10.5331 48.113 11.8752C46.6959 13.2774 44.991 14 42.9804 14.0558L42.9811 14.0565ZM42.7294 9.34552C42.7202 10.5717 43.0878 10.9355 43.9728 10.9171C44.5307 10.9054 45.026 10.7159 45.3912 10.2969C45.6839 9.96076 45.957 9.59456 46.1669 9.20321C46.8555 7.92243 47.3545 6.56251 47.6975 5.15107C47.7994 4.73151 47.8264 4.28434 47.8191 3.85127C47.8123 3.44152 47.5637 3.19432 47.1538 3.13114C46.8966 3.09127 46.6217 3.07961 46.367 3.12562C45.5857 3.2667 45.0867 3.81079 44.6522 4.41867C43.9741 5.3676 43.5438 6.43799 43.1995 7.54089C42.9823 8.23772 42.8295 8.9554 42.7288 9.34614L42.7294 9.34552Z" fill="white"/>
<path d="M20.6273 14.0614C20.0749 13.9713 19.5091 13.9314 18.9733 13.7817C17.439 13.3523 16.5184 12.0998 16.4613 10.4638C16.4159 9.17139 16.7369 7.95378 17.2039 6.76807C18.0232 4.68802 19.1899 2.84843 21.0176 1.50385C22.6691 0.2887 24.5079 -0.258456 26.5602 0.120627C28.3142 0.444504 29.3526 1.68849 29.4128 3.48146C29.4551 4.75182 29.1397 5.94857 28.6867 7.11894C27.9987 8.89597 27.1217 10.5577 25.7464 11.9121C24.3391 13.2977 22.6115 14.0019 20.6279 14.0614H20.6273ZM20.3928 9.56274C20.3855 10.4767 20.6813 10.8515 21.3748 10.9104C22.0069 10.9637 22.5802 10.8018 23.0239 10.3344C23.2749 10.07 23.5106 9.77804 23.6916 9.46275C24.4582 8.12737 24.9792 6.68956 25.3542 5.20206C25.4641 4.7647 25.4972 4.29606 25.4849 3.84398C25.4739 3.42073 25.229 3.21095 24.816 3.12385C23.9316 2.93737 23.2632 3.32566 22.7011 3.94887C21.913 4.82236 21.4577 5.88232 21.0624 6.9705C20.7414 7.85318 20.4456 8.74384 20.3935 9.56335L20.3928 9.56274Z" fill="white"/>
<path d="M43.4707 0.194433C42.5747 0.836052 41.7278 1.49178 41.0005 2.28859C40.7391 2.57444 40.4844 2.87132 40.2653 3.18968C40.1302 3.38658 39.9842 3.43749 39.7608 3.43565C38.5032 3.42523 37.2457 3.42829 35.9882 3.42829C35.3364 3.42829 35.1278 3.57919 34.908 4.20057C34.7491 4.65019 34.5914 5.10104 34.4201 5.5887H38.0061C37.9724 5.70954 37.954 5.7948 37.9245 5.87577C37.6446 6.65295 37.3562 7.42645 37.0874 8.20793C37.0199 8.40483 36.9327 8.4723 36.7204 8.46924C35.6881 8.45574 34.6552 8.4674 33.6229 8.45574C33.4247 8.45329 33.3412 8.51892 33.2768 8.7011C32.7097 10.2959 32.126 11.8847 31.5657 13.4814C31.4779 13.7316 31.3595 13.7985 31.1085 13.796C29.9737 13.7825 28.8389 13.7905 27.7041 13.7905C27.6041 13.7905 27.504 13.7905 27.3672 13.7905C27.4059 13.6617 27.4298 13.566 27.4629 13.4734C28.6609 10.1555 29.8608 6.83759 31.0587 3.51969C31.6449 1.89663 32.6894 0.753243 34.4189 0.350851C34.8233 0.257 35.2468 0.203634 35.6617 0.201794C38.2173 0.188299 40.7734 0.195046 43.329 0.195046C43.3756 0.195046 43.4229 0.195046 43.4695 0.195046L43.4707 0.194433Z" fill="white"/>
<path d="M63.233 13.8001C64.4832 10.3331 65.7205 6.903 66.9712 3.43543H64.5016C64.6145 2.16876 64.2837 1.08671 63.2797 0.21875H76.6663C76.4551 0.811297 76.2477 1.39464 76.0384 1.97738C75.901 2.36137 75.7457 2.73984 75.6266 3.12996C75.556 3.36121 75.4517 3.44341 75.1976 3.44034C73.7965 3.42501 72.3954 3.4385 70.9942 3.42746C70.7702 3.42562 70.6788 3.49923 70.6051 3.70472C69.4415 6.95023 68.2644 10.1908 67.1063 13.4382C67.0019 13.7314 66.8712 13.8142 66.5668 13.8081C65.4744 13.786 64.3813 13.7995 63.2324 13.7995L63.233 13.8001Z" fill="white"/>
<path d="M30.6924 19.3373C29.8644 20.7224 29.0733 22.0191 28.3123 23.3337C28.0908 23.7158 27.8201 23.9103 27.3788 23.8784C27.145 23.8612 26.9087 23.8784 26.6737 23.8698C26.2919 23.8557 26.2379 23.8029 26.2741 23.4318C26.384 22.2927 26.5012 21.1548 26.6184 20.017C26.7031 19.1938 26.7989 18.3718 26.8762 17.5487C26.9057 17.2346 27.0548 17.0874 27.3666 17.0917C27.6114 17.0953 27.8569 17.0917 28.1018 17.0941C28.2994 17.0966 28.3553 17.1837 28.3264 17.3886C28.1165 18.8957 27.9189 20.404 27.7188 21.9124C27.6992 22.0621 27.6851 22.2124 27.7139 22.381C27.7673 22.3013 27.8238 22.224 27.8729 22.1424C28.7702 20.6451 29.6815 19.1564 30.553 17.6443C30.7887 17.2352 31.0716 17.0696 31.5295 17.0708C32.2936 17.0727 32.3101 17.0684 32.2254 17.8186C32.0677 19.2091 31.9045 20.5985 31.7424 21.9885C31.7296 22.0995 31.7056 22.2087 31.6872 22.3191L31.7645 22.3522C31.8234 22.2676 31.8885 22.1866 31.9407 22.0983C32.8484 20.5598 33.7536 19.0202 34.6607 17.4818C34.8638 17.1371 35.6427 16.9224 35.9851 17.126C36.0293 17.1524 36.06 17.2702 36.0391 17.3241C35.9851 17.4658 35.9066 17.5996 35.8262 17.729C34.6515 19.6195 33.4707 21.5057 32.3034 23.4005C32.1058 23.7219 31.8578 23.8888 31.481 23.8753C31.2054 23.8655 30.9286 23.8796 30.6531 23.8679C30.3217 23.8532 30.2584 23.7686 30.2947 23.4502C30.4284 22.2731 30.5622 21.096 30.6905 19.9176C30.7077 19.7581 30.693 19.595 30.693 19.3379L30.6924 19.3373Z" fill="white"/>
<path d="M59.9422 18.7091C59.5273 19.8733 59.1394 20.9609 58.7515 22.0479C58.5803 22.5275 58.3962 23.0035 58.2391 23.4881C58.1538 23.7525 57.9917 23.8562 57.7248 23.8752C56.8919 23.9341 56.8612 23.9003 57.1374 23.133C57.7769 21.359 58.4158 19.585 59.0547 17.8111C59.2689 17.2161 59.4131 17.1143 60.041 17.1143C60.133 17.1143 60.2251 17.1143 60.3171 17.1143C61.0634 17.1143 61.1444 17.1836 61.2574 17.9252C61.4489 19.1863 61.6385 20.4475 61.83 21.7086C61.8367 21.7547 61.8619 21.7982 61.8877 21.8687C62.3602 20.5542 62.8218 19.2704 63.2833 17.9865C63.3213 17.881 63.3496 17.7706 63.4005 17.6718C63.4907 17.4982 63.565 17.2247 63.7012 17.1848C63.9934 17.1001 64.3242 17.1081 64.6335 17.1363C64.836 17.1547 64.7409 17.3351 64.6979 17.4541C64.2597 18.6723 63.8197 19.8893 63.3802 21.1069C63.1274 21.8068 62.8745 22.5067 62.6205 23.206C62.4277 23.7372 62.2485 23.8641 61.695 23.866C60.7535 23.8684 60.7277 23.8396 60.581 22.8974C60.3945 21.6976 60.1956 20.4996 60.0048 19.2998C59.9771 19.1274 59.9667 18.952 59.9409 18.7079L59.9422 18.7091Z" fill="white"/>
<path d="M11.6155 20.2029C12.3611 20.5188 12.5876 20.9973 12.3268 21.7524C11.8959 23.0013 10.9404 23.6312 9.69083 23.7852C8.85309 23.8882 7.99694 23.8478 7.14877 23.8545C6.85296 23.857 6.78238 23.7012 6.90512 23.3583C7.31448 22.2161 7.72936 21.0758 8.14178 19.9349C8.41919 19.1681 8.69475 18.4001 8.97399 17.634C9.12865 17.2089 9.26858 17.1077 9.7252 17.1157C10.4911 17.1285 11.262 17.1022 12.0211 17.1831C12.9859 17.2856 13.3235 17.9131 12.9859 18.8258C12.741 19.4877 12.2697 19.9281 11.6149 20.2035L11.6155 20.2029ZM8.4333 22.8375C8.94638 22.8099 9.40606 22.8246 9.85101 22.7504C10.3825 22.6621 10.7378 22.3198 10.8974 21.7959C11.0459 21.3089 10.8489 20.9776 10.3494 20.9249C9.99585 20.8875 9.63743 20.8979 9.28086 20.8973C9.22133 20.8973 9.12497 20.9347 9.1084 20.9789C8.88439 21.5745 8.67143 22.1744 8.4333 22.8369V22.8375ZM9.50364 19.8735C9.8639 19.8735 10.191 19.8968 10.5132 19.868C11.0515 19.8195 11.5437 19.3221 11.6179 18.7909C11.6707 18.4167 11.5142 18.1983 11.1355 18.164C10.852 18.1382 10.5648 18.1431 10.2794 18.1492C10.2137 18.1505 10.1106 18.1995 10.0904 18.2523C9.88906 18.7823 9.70187 19.3178 9.50303 19.8735H9.50364Z" fill="white"/>
<path d="M69.3395 21.0548C68.9253 21.0548 68.5675 21.048 68.2103 21.0572C67.9961 21.0627 67.928 20.9787 67.9961 20.7787C68.0421 20.6438 68.0887 20.5088 68.1342 20.3739C68.2244 20.1058 68.3968 19.9997 68.6908 20.0089C69.3242 20.0291 69.9588 20.012 70.5927 20.0163C70.934 20.0187 71.0205 20.1328 70.9057 20.4585C70.5872 21.3621 70.2669 22.2656 69.9226 23.1593C69.8593 23.3225 69.7041 23.5108 69.5476 23.5672C68.5447 23.9292 67.5137 24.1046 66.4507 23.8721C65.3417 23.6292 64.7752 22.8643 64.9011 21.7319C65.1079 19.8739 66.4366 17.7534 68.7068 17.1615C69.5341 16.9462 70.3608 16.9235 71.1856 17.175C71.2636 17.1989 71.3415 17.2247 71.4158 17.2572C71.8859 17.4651 71.9442 17.6007 71.7772 18.0877C71.7607 18.1362 71.7453 18.1846 71.7263 18.2319C71.5139 18.7649 71.4802 18.7766 70.9855 18.484C69.9434 17.8675 68.6116 18.0282 67.637 18.9042C66.9754 19.4985 66.5771 20.253 66.4274 21.1216C66.2224 22.3135 66.9006 22.9759 68.1188 22.8122C68.5368 22.7563 68.8663 22.6312 68.9596 22.135C69.0259 21.781 69.1965 21.4473 69.3389 21.0535L69.3395 21.0548Z" fill="white"/>
<path d="M23.2516 20.7267C23.6358 21.0482 23.6978 21.4855 23.7199 21.9419C23.7426 22.4013 23.7886 22.8589 23.8071 23.3184C23.8255 23.7815 23.7445 23.8612 23.2934 23.8747C23.0994 23.8809 22.9043 23.8661 22.7109 23.8784C22.428 23.8968 22.3096 23.7882 22.3065 23.4932C22.3004 22.9417 22.2734 22.3903 22.2304 21.8401C22.1831 21.2316 21.7652 20.9421 21.1889 21.1114C21.1171 21.1322 21.0539 21.2481 21.0226 21.3334C20.7624 22.0413 20.4991 22.7485 20.261 23.4644C20.164 23.7557 19.9885 23.86 19.6988 23.8741C18.7322 23.9226 18.7254 23.9195 19.0495 23.0215C19.6939 21.2383 20.3389 19.4552 20.9851 17.6726C21.1582 17.196 21.2754 17.1083 21.7689 17.1156C22.5551 17.1273 23.348 17.0911 24.1262 17.1801C25.1223 17.2941 25.4758 17.9413 25.1573 18.8964C24.8706 19.757 24.3705 20.2403 23.2498 20.7261L23.2516 20.7267ZM21.4859 20.0581C21.8204 20.0581 22.1273 20.0802 22.4299 20.0538C23.0915 19.9962 23.5916 19.541 23.7316 18.9031C23.8157 18.5203 23.6819 18.2793 23.2891 18.2161C22.9601 18.1627 22.6207 18.1713 22.2856 18.1652C22.2335 18.164 22.1494 18.221 22.131 18.2701C21.9125 18.8583 21.7032 19.4503 21.4859 20.0581Z" fill="white"/>
<path d="M1.98463 23.9932C1.75141 23.968 1.51512 23.9557 1.28498 23.9146C0.322655 23.7441 -0.149914 23.0822 0.0421821 22.1235C0.129945 21.6868 0.286445 21.2611 0.435581 20.839C0.836344 19.7049 1.25552 18.5774 1.65505 17.4426C1.73054 17.2279 1.85022 17.1151 2.07116 17.1102C2.31542 17.1046 2.55969 17.1016 2.80395 17.1053C3.06233 17.1089 3.10468 17.2255 3.01691 17.4623C2.56767 18.6762 2.12394 19.8926 1.69556 21.1145C1.59184 21.4089 1.5139 21.7236 1.49242 22.0333C1.46173 22.4774 1.73116 22.7633 2.17549 22.8234C2.97518 22.9314 3.60118 22.6277 4.0449 21.9714C4.20816 21.7297 4.32476 21.4506 4.42664 21.1752C4.87834 19.9508 5.32452 18.7246 5.75352 17.4929C5.84558 17.2292 5.98919 17.1003 6.25862 17.1016C6.49244 17.1028 6.72689 17.1016 6.96072 17.1126C7.14177 17.1212 7.21173 17.1997 7.13993 17.3942C6.62317 18.8007 6.14753 20.2232 5.59272 21.615C4.98452 23.1411 3.64598 23.9827 1.98401 23.9944L1.98463 23.9932Z" fill="white"/>
<path d="M52.012 23.9858C51.8555 23.9643 51.5886 23.9484 51.3308 23.8889C50.4231 23.6803 49.9916 23.054 50.1868 22.1443C50.3083 21.5794 50.5158 21.031 50.7072 20.4839C51.0577 19.4834 51.432 18.4909 51.7794 17.4898C51.8653 17.2426 51.9942 17.1059 52.2569 17.1046C52.2771 17.1046 52.2974 17.0991 52.3177 17.0967C53.2162 16.9844 53.291 17.0746 52.9928 17.9002C52.5883 19.0221 52.1796 20.1428 51.7862 21.269C51.7033 21.5064 51.6456 21.7622 51.6327 22.0125C51.6094 22.4737 51.8733 22.7651 52.3305 22.824C53.1308 22.927 53.7654 22.6271 54.1914 21.9597C54.4074 21.6211 54.5473 21.2285 54.6891 20.8476C55.1046 19.7294 55.5109 18.6081 55.903 17.4819C55.9902 17.2316 56.1246 17.1016 56.3836 17.1034C56.6377 17.1052 56.893 17.1022 57.1465 17.1187C57.298 17.1292 57.3502 17.2107 57.2907 17.3733C56.7629 18.8087 56.2946 20.2679 55.7054 21.6769C55.0549 23.2319 53.7894 23.9484 52.0114 23.9852L52.012 23.9858Z" fill="white"/>
<path d="M37.894 19.8262C38.5488 19.8262 39.1411 19.8335 39.7333 19.8225C39.9917 19.8176 40.0746 19.9077 39.9819 20.1519C39.953 20.2279 39.9365 20.3089 39.9082 20.385C39.7339 20.8548 39.7057 20.8738 39.2018 20.8738C38.7213 20.8738 38.2407 20.8812 37.7608 20.8702C37.5822 20.8659 37.4908 20.9125 37.4306 21.0941C37.2477 21.6437 37.0409 22.1853 36.8261 22.7791H37.1765C37.7897 22.7791 38.4034 22.7785 39.0165 22.7791C39.3626 22.7797 39.3878 22.8153 39.2908 23.1551C39.2767 23.2042 39.2595 23.252 39.2423 23.2999C39.0552 23.8311 39.0165 23.8587 38.4574 23.8587C37.5067 23.8587 36.5561 23.8605 35.6054 23.858C35.2138 23.8568 35.1242 23.736 35.2562 23.3686C35.9485 21.4412 36.6438 19.5152 37.3416 17.5897C37.4754 17.221 37.6393 17.1137 38.0321 17.1137C39.0441 17.1125 40.0561 17.1223 41.0676 17.1076C41.3591 17.1033 41.4113 17.2063 41.321 17.4511C41.2965 17.5179 41.2799 17.5878 41.256 17.6547C41.0749 18.1583 41.0418 18.181 40.5115 18.181C39.9187 18.181 39.3258 18.1871 38.733 18.1773C38.5531 18.1743 38.4586 18.2227 38.3997 18.4043C38.2487 18.8668 38.075 19.3219 37.8934 19.8255L37.894 19.8262Z" fill="white"/>
<path d="M15.9565 19.8264C16.5924 19.8264 17.1846 19.8251 17.7768 19.8264C18.072 19.8276 18.1193 19.8883 18.0426 20.1717C18.0107 20.2895 17.9591 20.4017 17.9198 20.5171C17.8296 20.7833 17.6615 20.8943 17.3657 20.8802C16.8452 20.8557 16.3229 20.8673 15.8019 20.879C15.711 20.8808 15.568 20.9372 15.541 21.0047C15.3183 21.5721 15.117 22.1481 14.8905 22.7731H17.3853C17.4012 23.1792 17.2693 23.4927 17.0576 23.7699C17.0091 23.8331 16.8753 23.8552 16.7808 23.8558C15.7276 23.8613 14.6745 23.8619 13.6213 23.8576C13.2881 23.8564 13.1942 23.727 13.3077 23.4099C14.0092 21.4525 14.7156 19.497 15.4232 17.5414C15.5183 17.2795 15.6963 17.1139 15.9934 17.1133C17.0772 17.1133 18.161 17.1133 19.2449 17.1139C19.2934 17.1139 19.3425 17.1286 19.4137 17.1397C19.4118 17.4979 19.3013 17.8113 19.0908 18.0776C19.0319 18.1524 18.8736 18.1739 18.76 18.1757C18.1365 18.1849 17.5117 18.1978 16.8894 18.172C16.6089 18.1604 16.4954 18.2622 16.4181 18.5137C16.2873 18.9406 16.1235 19.3577 15.9565 19.8245V19.8264Z" fill="white"/>
<path d="M45.2923 24.0006C45.0456 23.9295 44.6129 23.8228 44.1944 23.6768C43.9096 23.5774 43.8175 23.3529 43.9391 23.0597C44.009 22.8904 44.0643 22.7149 44.1404 22.5481C44.2484 22.3095 44.3963 22.2647 44.6197 22.4389C45.1242 22.8315 45.6968 22.9634 46.3228 22.8174C46.7094 22.7272 47.0126 22.5156 47.2004 22.1586C47.395 21.7887 47.3422 21.5256 46.9985 21.2833C46.7745 21.125 46.5278 20.9986 46.289 20.8619C45.3954 20.3509 45.1935 19.7651 45.5851 18.8119C46.173 17.3814 47.9786 16.603 49.4233 17.1569C49.8898 17.336 49.9382 17.4409 49.7719 17.9151C49.7621 17.9439 49.7461 17.9709 49.7357 17.9997C49.5892 18.3903 49.3333 18.4862 48.9679 18.2874C48.534 18.0512 48.0682 17.9605 47.6153 18.1672C47.3827 18.2733 47.1673 18.4849 47.0243 18.7015C46.8266 19.0008 46.9003 19.2627 47.1949 19.4737C47.4342 19.6449 47.7 19.7798 47.9571 19.9258C48.8906 20.4552 49.1091 21.0704 48.6531 22.0439C48.0295 23.3737 46.9003 23.9111 45.2923 24.0006Z" fill="white"/>
<path d="M41.3833 23.8849C40.7107 23.888 40.6886 23.8573 40.9126 23.2372C41.592 21.3589 42.2818 19.4844 42.9397 17.5988C43.0662 17.2368 43.2576 17.1037 43.6185 17.0792C44.4409 17.0228 44.4986 17.0841 44.2255 17.8417C43.5762 19.6438 42.9275 21.4466 42.2781 23.2488C42.0609 23.8518 42.0179 23.8812 41.3833 23.8843V23.8849Z" fill="white"/>
<path d="M5.83332 16.5115C5.32455 16.5103 5.22144 16.3564 5.40188 15.8656C5.60318 15.3185 6.03463 15.1001 6.59189 15.2504C6.77171 15.2989 6.84168 15.3952 6.83002 15.5792C6.79381 16.1545 6.41514 16.5128 5.83332 16.5115Z" fill="white"/>
<path d="M3.58502 16.5111C3.07134 16.5111 2.96332 16.3559 3.1413 15.8707C3.34199 15.3223 3.76607 15.1046 4.32825 15.2481C4.50745 15.2941 4.59767 15.3867 4.5676 15.5707C4.47309 16.1455 4.21409 16.5485 3.58564 16.5111H3.58502Z" fill="white"/>
</g>
<defs>
<clipPath id="clip0_198_400">
<rect width="76.6667" height="24" fill="white"/>
</clipPath>
</defs>
</svg>
